<?xml version="1.0" encoding="UTF-8"?>
<svg width="48px" height="48px" viewBox="0 0 48 48" version="1.1" xmlns="http://www.w3.org/2000/svg" xmlns:xlink="http://www.w3.org/1999/xlink">
    <!-- Generator: Sketch 62 (91390) - https://sketch.com -->
    <title>Atom/ Icon/ Rich icon/ Ancilliaries/ Excess baggage</title>
    <desc>Created with Sketch.</desc>
    <g id="Atom/-Icon/-Rich-icon/-Ancilliaries/-Excess-baggage" stroke="none" stroke-width="1" fill="none" fill-rule="evenodd">
        <g id="ANCI_Excess-baggage">
            <rect id="Rectangle" x="0" y="0" width="48" height="48"></rect>
            <g id="Group" transform="translate(0.000000, 2.000000)" fill-rule="nonzero">
                <polygon id="Path" fill="#BD8B13" points="6 25.5 6 33.5 14 25.5"></polygon>
                <path d="M30.464,19.6586667 L23.584,19.6586667 L23.584,18.6773333 C23.5781495,17.0538366 22.2634968,15.7391838 20.64,15.7333333 L14.7413333,15.7333333 C13.1178366,15.7391838 11.8031838,17.0538366 11.7973333,18.6773333 L11.7973333,19.6586667 L4.91733333,19.6586667 C2.2039989,19.6645334 0.0058666896,21.8626656 -6.03961325e-14,24.576 L-6.03961325e-14,38.336 C0.0058666896,41.0493344 2.2039989,43.2474666 4.91733333,43.2533333 L30.5173333,43.2533333 C33.2306678,43.2474666 35.4288,41.0493344 35.4346667,38.336 L35.4346667,24.576 C35.4318748,23.2634368 34.9055714,22.0062204 33.9724545,21.0831154 C33.0393375,20.1600105 31.7765169,19.6472995 30.464,19.6586667 Z M13.76,18.6773333 C13.76,18.4170676 13.8633902,18.1674616 14.0474259,17.9834259 C14.2314616,17.7993902 14.4810676,17.696 14.7413333,17.696 L20.64,17.696 C20.9002658,17.696 21.1498718,17.7993902 21.3339075,17.9834259 C21.5179432,18.1674616 21.6213333,18.4170676 21.6213333,18.6773333 L21.6213333,19.6586667 L13.76,19.6586667 L13.76,18.6773333 Z M9.84533333,41.28 L9.84533333,32.256 L7.872,34.2186667 L7.872,41.28 L4.91733333,41.28 C3.28967252,41.28 1.9685427,39.9636502 1.96266667,38.336 L1.96266667,24.576 C1.96266667,22.9441827 3.28551599,21.6213333 4.91733333,21.6213333 L7.872,21.6213333 L7.872,23.6373333 L9.84533333,23.6373333 L9.84533333,21.6213333 L25.6,21.6213333 L25.6,41.28 L9.84533333,41.28 Z M33.4186667,38.336 C33.4127906,39.9636502 32.0916608,41.28 30.464,41.28 L27.5306667,41.28 L27.5306667,21.6213333 L30.464,21.6213333 C32.0958173,21.6213333 33.4186667,22.9441827 33.4186667,24.576 L33.4186667,38.336 Z" id="Shape" fill="#4E4C4A"></path>
                <path d="M42.2613333,3.936 L35.3813333,3.936 L35.3813333,2.95466667 C35.3813439,1.32700586 34.0649835,0.00587603177 32.4373333,1.15463195e-13 L26.5386667,1.15463195e-13 C24.9068493,1.15463195e-13 23.584,1.32284933 23.584,2.95466667 L23.584,3.936 L16.704,3.936 C13.9923983,3.94188201 11.7973333,6.14172527 11.7973333,8.85333333 L11.7973333,13.76 L13.76,13.76 L13.76,8.85333333 C13.7599894,7.22567252 15.0763498,5.9045427 16.704,5.89866667 L19.6693333,5.89866667 L19.6693333,13.76 L21.632,13.76 L21.632,5.89866667 L37.3333333,5.89866667 L37.3333333,25.5573333 L37.3333333,25.5573333 L37.3333333,27.5200118 L42.2506667,27.5200118 C43.5622356,27.5228729 44.8206027,27.0016627 45.746019,26.0722402 C46.6714353,25.1428178 47.187205,23.882211 47.178771,22.5706667 L47.178771,8.85333333 C47.1728,6.1399989 44.9746678,3.94186669 42.2613333,3.936 Z M25.6,3.936 L25.6,2.95466667 C25.6,2.41269123 26.0393579,1.97333333 26.5813333,1.97333333 L32.48,1.97333333 C33.0219754,1.97333333 33.4613333,2.41269123 33.4613333,2.95466667 L33.4613333,3.936 L25.6,3.936 Z M45.216,22.5706667 C45.210124,24.1983169 43.8889941,25.5146667 42.2613333,25.5146667 L39.328,25.5146667 L39.328,5.89866667 L42.2613333,5.89866667 C43.8931507,5.89866667 45.216,7.22151599 45.216,8.85333333 L45.216,22.5706667 Z" id="Shape" fill="#4E4C4A"></path>
            </g>
        </g>
    </g>
</svg>