<?xml version="1.0" encoding="UTF-8"?>
<svg width="48px" height="48px" viewBox="0 0 48 48" version="1.1" xmlns="http://www.w3.org/2000/svg" xmlns:xlink="http://www.w3.org/1999/xlink">
    <!-- Generator: Sketch 62 (91390) - https://sketch.com -->
    <title>Atom/ Icon/ Rich icon/ Journey / Online Check-in</title>
    <desc>Created with Sketch.</desc>
    <g id="Atom/-Icon/-Rich-icon/-Journey-/-Online-Check-in" stroke="none" stroke-width="1" fill="none" fill-rule="evenodd">
        <g id="JRNY_Online-Check-in">
            <rect id="Rectangle" x="0" y="0" width="48" height="48"></rect>
            <g id="Group" transform="translate(0.000000, 1.900000)" fill-rule="nonzero">
                <polygon id="Path" fill="#BD8B13" points="24.0056522 5.77209302 29.6613043 0.1 18.35 0.1"></polygon>
                <path d="M5.99910966,12.5054718 C5.99896281,12.3940644 6.04467094,12.2874895 6.12552959,12.2107059 C6.20638823,12.1339223 6.31529528,12.0936743 6.42674562,12.0993876 L41.6180564,12.0993876 C41.7233075,12.0990221 41.8238803,12.1427732 41.8952705,12.2199811 C41.9666607,12.297189 42.0023133,12.4007645 41.9935417,12.5054718 L41.9935417,36.1 L43.9964981,36.1 L43.9964981,12.5054718 C44.0073617,11.8696065 43.761444,11.2560506 43.3139374,10.8034265 C42.8664308,10.3508025 42.2550969,10.0973039 41.6180564,10.1 L6.42674562,10.1 C5.78329236,10.0918187 5.16344286,10.3418605 4.70645684,10.7941537 C4.24947081,11.2464468 3.99366904,11.863064 3.99649812,12.5054718 L3.99649812,36.1 L5.99910966,36.1 L5.99910966,12.5054718 Z" id="Path" fill="#4E4C4A"></path>
                <path d="M47.0295652,38.1 L26.5147826,38.1 C25.9384855,38.1 25.4713043,38.563947 25.4713043,39.1362546 L25.4713043,39.7372822 L22.56,39.7372822 L22.56,39.1362546 C22.56,38.563947 22.0928189,38.1 21.5165217,38.1 L1.04347826,38.1 C0.467181131,38.1 6.92779167e-13,38.563947 6.92779167e-13,39.1362546 L6.92779167e-13,41.5196401 C6.92779167e-13,42.944686 1.16328102,44.0999139 2.59826087,44.0999139 L45.3808696,44.0999139 C46.0808758,44.1055878 46.7535723,43.8305164 47.2465998,43.3370007 C47.7396273,42.8434849 48.0112688,42.1732833 48.0003371,41.4781899 L48.0003371,39.0948044 C47.9799544,38.5656894 47.561464,38.1366899 47.0295652,38.1 Z M45.986087,41.4781899 C45.986136,41.8061232 45.7214746,42.0735635 45.3913043,42.0792175 L2.60869565,42.0792175 C2.3073948,42.0375623 2.0840508,41.7802767 2.08692849,41.4781899 L2.08692849,40.0896088 L20.5982609,40.0896088 C20.7812752,40.9449164 21.5438588,41.5550874 22.4243478,41.5507277 L25.6382609,41.5507277 C26.5187499,41.5550874 27.2813335,40.9449164 27.4643478,40.0896088 L46.0278261,40.0896088 L45.986087,41.4781899 Z" id="Shape" fill="#4E4C4A"></path>
                <path d="M29.1669368,30.7680446 L31,29.8946313 L27.8395462,22.7544771 L30.5996759,19.6647774 C30.7997381,19.2334556 30.7054289,18.7173849 30.3670358,18.3917444 C30.0286428,18.0661038 29.5250557,18.0068105 29.1247974,18.2454807 L26.3435981,21.3460981 L19.2431118,18.824117 L18.5899514,20.8002147 L24.8371151,22.9837481 L21.6766613,26.5538252 L18.3160454,25.9970242 L18,28.0713809 L21.2763371,28.6063466 L22.3298217,32.1 L24.2576985,31.477693 L23.2042139,27.9512866 L26.3646677,24.3702918 L29.1669368,30.7680446 Z" id="Path" fill="#4E4C4A"></path>
            </g>
        </g>
    </g>
</svg>