<?xml version="1.0" encoding="UTF-8"?>
<svg width="48px" height="48px" viewBox="0 0 48 48" version="1.1" xmlns="http://www.w3.org/2000/svg" xmlns:xlink="http://www.w3.org/1999/xlink">
    <!-- Generator: Sketch 62 (91390) - https://sketch.com -->
    <title>Atom/ Icon/ Rich icon/ Journey / Manage your booking</title>
    <desc>Created with Sketch.</desc>
    <g id="Atom/-Icon/-Rich-icon/-Journey-/-Manage-your-booking" stroke="none" stroke-width="1" fill="none" fill-rule="evenodd">
        <g id="JRNY_Manage-your-booking">
            <rect id="Rectangle" x="0" y="0" width="48" height="48"></rect>
            <g id="Group" fill-rule="nonzero">
                <polygon id="Path" fill="#BD8B13" points="4.46933333 16.3367735 11.0933333 11.8674402 7.27418126e-13 9.70210684"></polygon>
                <polygon id="Path" fill="#4E4C4A" points="34 48 34 44 32 44 32 48"></polygon>
                <path d="M15.264,13.5741068 L19.4346667,11.4407735 L18.5386667,9.65944017 L15.808,11.0354402 L12.2133333,13.4461068 L11.6693333,13.8087735 C12.1241624,13.9148619 12.5890204,13.9720752 13.056,13.9794402 C13.8111383,13.986654 14.5606605,13.8490605 15.264,13.5741068 L15.264,13.5741068 Z" id="Path" fill="#4E4C4A"></path>
                <path d="M46.8060022,2.53891713 C43.5819304,0.723638658 37.4454471,3.13676334 36.768392,3.40851161 L28.761947,6.48470208 L17.1015539,0.0931826608 C16.8356347,-0.0310608869 16.5292145,-0.0310608869 16.2632953,0.0931826608 L15.4250366,0.41928059 C15.1681144,0.527186582 14.9687858,0.740656435 14.8769444,1.00625686 C14.7778001,1.30367651 14.8257657,1.63115096 15.0059073,1.88672127 L22.1633467,12.4414243 L23.8291171,11.2892116 L18.1010162,2.96284444 L28.2031079,8.48476938 C28.4621782,8.62074054 28.7647839,8.64428437 29.0413666,8.54998896 L37.4991816,5.28900967 C39.1327113,4.62594388 43.8076155,3.11502347 45.8172869,4.29984595 L45.914009,4.29984595 C45.0265595,5.05526981 44.0105245,5.64092898 42.9156223,6.02816498 L19.7882805,15.2023867 C16.1911666,15.8050027 12.5471754,16.0742447 8.90166463,16.0067616 L6,17.9850891 L6.06448144,17.9850891 C7.13917204,17.9850891 8.21386264,17.9850891 9.21332491,17.9850891 C12.9520542,18.0727024 16.6898602,17.7740427 20.3686134,17.0937547 L43.6464119,7.98475255 C44.9682813,7.50647559 47.8699459,6.22382373 47.9989088,4.41941519 C48.0258709,3.60286574 47.551096,2.85443054 46.8060022,2.53891713 L46.8060022,2.53891713 Z" id="Path" fill="#4E4C4A"></path>
                <path d="M24.013401,24.1507825 L24.013401,22 L21.986599,22 L21.986599,24.1507825 C20.0407681,24.6591521 18.7761359,26.5299042 19.0330622,28.5199067 C19.2899885,30.5099091 20.9885343,32 23,32 C25.0114657,32 26.7100115,30.5099091 26.9669378,28.5199067 C27.2238641,26.5299042 25.9592319,24.6591521 24.013401,24.1507825 L24.013401,24.1507825 Z M23,29.9471412 C22.2020373,29.9471412 21.4826472,29.4676617 21.1772801,28.7322832 C20.871913,27.9969047 21.0407058,27.1504475 21.6049506,26.5876132 C22.1691954,26.0247789 23.0177739,25.856408 23.7549953,26.1610118 C24.4922167,26.4656155 24.9728978,27.1832073 24.9728978,27.9791753 C24.9728978,29.0660528 24.0896014,29.9471412 23,29.9471412 L23,29.9471412 Z" id="Shape" fill="#4E4C4A"></path>
                <rect id="Rectangle" fill="#4E4C4A" x="22" y="34" width="2" height="14"></rect>
                <path d="M34.0026202,34.1680731 L34.0026202,22 L31.986599,22 L31.986599,34.1680731 C30.0407681,34.6753228 28.7761359,36.541954 29.0330622,38.5275728 C29.2899885,40.5131915 30.9885343,42 33,42 C35.0114657,42 36.7100115,40.5131915 36.9669378,38.5275728 C37.2238641,36.541954 35.9592319,34.6753228 34.013401,34.1680731 L34.0026202,34.1680731 Z M32.9892191,39.9516633 C31.8996178,39.9516633 31.0163214,39.0725159 31.0163214,37.9880325 C31.0163214,36.9035491 31.8996178,36.0244017 32.9892191,36.0244017 C34.0788205,36.0244017 34.9621169,36.9035491 34.9621169,37.9880325 C34.9678765,38.5125281 34.7625636,39.0175163 34.3919474,39.3904231 C34.0213312,39.7633299 33.5162215,39.9731238 32.9892191,39.9731238 L32.9892191,39.9516633 Z" id="Shape" fill="#4E4C4A"></path>
                <path d="M44.008011,28.1684655 L44.008011,22 L41.991989,22 L41.991989,28.1684655 C40.0444229,28.6731676 38.7770341,30.53923 39.0327058,32.5256186 C39.2883774,34.5120072 40.9874728,36 43,36 C45.0125272,36 46.7116226,34.5120072 46.9672942,32.5256186 C47.2229659,30.53923 45.9555771,28.6731676 44.008011,28.1684655 L44.008011,28.1684655 Z M42.9946096,33.9507315 C42.2897608,33.9507315 41.6384536,33.5765513 41.2860292,32.9691409 C40.9336048,32.3617305 40.9336048,31.61337 41.2860292,31.0059596 C41.6384536,30.3985493 42.2897608,30.0243691 42.9946096,30.0243691 L42.9946096,30.0243691 C44.0842114,30.0243691 44.9675082,30.9033152 44.9675082,31.9875503 C44.9675082,33.0717853 44.0842114,33.9507315 42.9946096,33.9507315 L42.9946096,33.9507315 Z" id="Shape" fill="#4E4C4A"></path>
                <rect id="Rectangle" fill="#4E4C4A" x="42" y="38" width="2" height="10"></rect>
            </g>
        </g>
    </g>
</svg>