<?xml version="1.0" encoding="UTF-8"?>
<svg width="48px" height="48px" viewBox="0 0 48 48" version="1.1" xmlns="http://www.w3.org/2000/svg" xmlns:xlink="http://www.w3.org/1999/xlink">
    <!-- Generator: Sketch 62 (91390) - https://sketch.com -->
    <title>Atom/ Icon/ Rich icon/ Ancilliaries/ Upgrade</title>
    <desc>Created with Sketch.</desc>
    <g id="Atom/-Icon/-Rich-icon/-Ancilliaries/-Upgrade" stroke="none" stroke-width="1" fill="none" fill-rule="evenodd">
        <g id="ANCI_upgrade">
            <rect id="Rectangle" x="0" y="0" width="48" height="48"></rect>
            <g id="Group" transform="translate(0.000000, 2.000000)" fill-rule="nonzero">
                <polygon id="Path" fill="#BD8B13" points="23.8347826 39 18.2 44.6511628 29.4695652 44.6511628"></polygon>
                <path d="M47.5568981,26.3204825 L25.6438546,0.356528963 C25.4557903,0.141326594 25.188061,0.0127454769 24.9029851,0.000715009792 C24.6165636,-0.0104123301 24.3404569,0.108812561 24.1516807,0.325133614 L0.245593775,26.2576918 C0.00135268775,26.5483355 -0.0665531625,26.9489429 0.0682024705,27.3042034 C0.235788898,27.657643 0.58600941,27.8877649 0.976028557,27.900715 L15.9186373,27.900715 L15.9186373,43.4623429 L16.8473329,42.5414127 L17.8908112,41.4949011 L17.8908112,26.9693197 C17.8646064,26.4315077 17.4357599,26.0014146 16.8995068,25.9751336 L3.25081117,25.9751336 L24.8508112,2.5018778 L44.6768981,25.9751336 L30.8612459,25.9751336 C30.304724,25.9744355 29.8455934,26.4118776 29.8177677,26.9693197 L29.8177677,41.4635057 L30.8612459,42.5100173 L31.7795068,43.4309476 L31.7795068,27.9635057 L46.795159,27.9635057 C47.1805469,27.9545503 47.5296174,27.7332321 47.7029851,27.3879243 C47.8546957,27.0323721 47.7985185,26.6218912 47.5568981,26.3204825 Z" id="Path" fill="#4E4C4A"></path>
            </g>
        </g>
    </g>
</svg>